<svg xmlns="http://www.w3.org/2000/svg" width="24" height="24" fill="none"><path fill="#fff" fill-rule="evenodd" d="M10.59 1h.581c.387.129.774.387 1.162.645.129.452.322.968.129 1.484-.13.13-.323.194-.517.258 0 .194.065.387.065.58.323 0 .645-.128.968-.193.064-.193.064-.387.193-.58 0 .129.065.258.065.387.193.129.322.258.58.193h4.13c.128 0 .193.13.322.258V3.13h.194c0 .258 0 .516.064.774.065 0 .13 0 .258.065v.322c.452 0 .839.065 1.29 0 .259-.064.581 0 .84 0v.323c-.323 0-.71.064-1.033 0-.58-.065-1.097.064-1.678 0 0 .064-.064.129-.064.258h-1.613a.73.73 0 0 0-.516.194c-.13.193-.323.387-.516.58-.065.387.064.71.193 1.097-.129.064-.258.064-.387.129-.129.387-.064.903-.451 1.226-.194.129-.387.322-.646.451-.193.065-.322 0-.516 0-.645-.064-1.16-.516-1.742-.774-.064.13-.064.323-.129.452.194.129.387.193.452.451.065.323 0 .646 0 .968 0 .323-.065.58-.065.903 0 .258-.193.517-.387.775-.129-.065-.322-.065-.451-.13-.194.388 0 .84.258 1.097.71.775 1.161 1.807 1.484 2.839.064.194.258.323.322.58.065.259.13.452.13.71 0 .452-.065.84-.13 1.29 0 .323-.129.646-.064.968q.096.388 0 .775c-.13.322-.13.645-.13 1.032 0 .193 0 .451.194.645.194.258.387.452.581.645.258.194.645.194.903.452.065.129 0 .322 0 .451-.71.13-1.484.13-2.129-.129-.387-.129-.839.065-1.161-.129 0-.451.129-.903.258-1.29.064-.323 0-.645 0-.968 0-.258-.13-.516-.194-.774a8 8 0 0 1-.193-1.742c-.065-.258.193-.516.193-.774a.9.9 0 0 0-.129-.71c-.258 0-.645.065-.774-.193-.322-.452-.58-.903-.903-1.355-.13-.194-.387-.13-.516-.258a1.4 1.4 0 0 1-.323-.516c-.064.193-.129.451-.322.58-.258.258-.323.581-.452.904-.064.258-.194.451-.194.71-.064.193-.064.386-.193.515-.258.194-.323.517-.58.71-.194.13-.259.387-.323.58 0 .194.064.388 0 .581-.065.387-.258.645-.452 1.033-.129.258-.129.516-.258.71-.064.193-.258.193-.387.322-.323.516-.387 1.161-.323 1.742.065.258.13.451.13.71-.194 0-.388.064-.581.064h-.58c-.13 0-.323-.064-.453-.129-.129-.323-.064-.645 0-.968.13-.516.259-.967.388-1.484.064-.258-.13-.451-.065-.71 0-.322.194-.645.387-.967.13-.258.065-.58.194-.839.258-.58.645-1.096.903-1.677.064-.258 0-.516 0-.71 0-.451.129-.903.193-1.355 0-.193.065-.387 0-.516-.064-.193-.129-.451-.064-.645 0-.194-.065-.387 0-.58.064-.194.194-.259.323-.388 0-.71-.259-1.355-.13-2.064.13-.13.323-.194.452-.258-.258-.065-.516-.13-.71-.13 0-.257 0-.58.065-.838.064-.452.064-.839.129-1.29 0-.13.129-.13.194-.13.193 0 .451 0 .645-.064-.065-.516-.13-1.097 0-1.613.129-.645.387-1.29.967-1.677.388-.258.904-.387 1.29-.13 0 0 .065-.064.13-.064-.194-.58-.194-1.29.193-1.806.258-.645.646-.839 1.033-.968" clip-rule="evenodd"/></svg>