<svg xmlns="http://www.w3.org/2000/svg" width="24" height="24" fill="none"><path fill="#fff" fill-rule="evenodd" d="M14.782 15.43s-1.164.97-2.653 1.035c0 0-2.653.323-3.558-.841l2.07-.777s3.106-1.035 3.17-2.135c0 0 .971-1.747-.387-3.3l-.13-.324-.259.065s-1.358-.453-2.523.776c0 0-.647 1.165.194 1.942 0 0 .453.258.453-.26l-.13-.711s1.877-.906 1.942 2.006c0 0-1.553 1.553-3.171.582 0 0-2.07-1.811-1.682-3.3l-.065-.776 1.359-1.165 1.811-1.035.648.13.582-.26.324.389 1.747.453s1.553 1.617 1.553 2.264c-.13-.065 1.035 3.365-1.295 5.241m7.83-3.624-4.077-2.459s-.194-.712-.906-1.618l.777-2.717-2.782.84s-.906-.71-1.424-.776L11.806 1 9.347 5.206s-.518.259-1.488.647l-2.588-1.1.84 2.912s-.711.97-.84 1.747L1 11.87l4.141 2.458s.324 1.1.777 1.618L5.012 18.6l2.847-.712s1.359.97 1.876 1.1L11.871 23l2.394-4.012s1.423-.647 1.876-.906l2.783.777-.842-2.847s.777-1.23.97-1.812z" clip-rule="evenodd"/></svg>