<svg xmlns="http://www.w3.org/2000/svg" width="24" height="24" fill="none"><path fill="#fff" fill-rule="evenodd" d="M12 3a9.06 9.06 0 0 1 5.4 1.8l-1.747 2.065A6.25 6.25 0 0 0 12 5.7a6.06 6.06 0 0 0-3.812 1.324l-1.8-2.012A8.77 8.77 0 0 1 12 3m6.088 2.382A8.87 8.87 0 0 1 21 12c0 4.977-4.023 9-9 9-4.976 0-9-4.023-9-9 0-2.435 1.006-4.659 2.594-6.3l.159-.159 1.8 2.012a6.25 6.25 0 0 0-1.8 4.394c0 1.165.318 2.224.847 3.177l3.653-3.653 1.376-3.6v5.876L8.347 17.03a6.1 6.1 0 0 0 3.706 1.218c1.376 0 2.7-.476 3.706-1.218l-3.283-3.282V7.871l1.377 3.6 3.653 3.653c.53-.953.847-2.012.847-3.177a6.25 6.25 0 0 0-1.8-4.394l-.106-.106z" clip-rule="evenodd"/></svg>