<svg xmlns="http://www.w3.org/2000/svg" width="24" height="24" fill="none"><path fill="#fff" d="M8.06 3.147h3.393v8.407c-.333-.596-1.066-1.76-1.332-1.644-.333.146.104 2.248 1.332 5.161A536 536 0 0 1 14.678 23l-3.413-2.518c-.617-1.394-1.935-4.1-2.268-3.767s.472 2.65.916 3.767H6.79l1.103-2.123c.16-.229.408-.924.125-1.873s-1.186-4.294-1.603-5.847l1.103 1.914c.5 1.075 1.578 3.192 1.894 3.06.317-.134-.437-2.484-.853-3.643C7.346 8.488 4.935 1.428 5.001 1.045 5.085.566 6.858 4.042 7.52 5.644S9.207 8.662 9.414 8.62s.104-.916-.333-2.477c-.363-1.295-.721-2.22-.91-2.71q-.074-.186-.11-.286"/><path fill="#fff" d="m13.513 17.173 1.394 3.35h2.31l1.02-3.35z"/></svg>