<svg xmlns="http://www.w3.org/2000/svg" width="24" height="24" fill="none"><path fill="#fff" fill-rule="evenodd" d="M23.617 6.219c-.109.328-2.57 5.193-2.733 5.412L19.9 9.772l.383-.875c.327-.656.656-1.312.983-2.022.165-.328.055-.492-.218-.711h2.57zM11.153 8.023c-.82.382-1.203 1.093-1.312 1.913-.055.766.164 1.476.765 2.023.437.383.93.601 1.53.492.438-.055.766-.273 1.04-.547.437-.492.71-1.038.71-1.75 0-.272 0-.6-.11-.874-.218-.437-.546-1.039-1.147-1.312-.492-.164-1.039-.164-1.476.055m.71-1.695c.93 0 1.75.328 2.515.93.328.327.656.655.875 1.038.219.437.383.93.437 1.476.055.328 0 .656 0 .984 0 .219-.11.438-.164.656-.219.656-.601 1.203-1.093 1.695-.547.492-1.203.765-1.914.875-.874.11-1.64 0-2.405-.438-.656-.328-1.148-.82-1.53-1.476a3.5 3.5 0 0 1-.438-1.202c-.055-.22-.055-.438-.055-.656 0-.82.273-1.586.765-2.242.383-.547.93-.984 1.586-1.257.328-.219.875-.383 1.421-.383M3.991 6l.11.164v.055l1.093 2.186c.656 1.367 1.366 2.68 2.022 4.046l.328.656.164.328c.164.273.328.492.656.71h-2.46c-.71-1.257-1.312-2.514-2.022-3.826l-.383.656c-.11.219-.219.492-.328.71h.983l.438.93H2.788l-.219.492c-.109.273-.218.492-.273.765 0 .11.055.22.11.22H0c.11-.22.219-.438.328-.602l1.804-3.608 1.804-3.609c-.054-.109 0-.164.055-.273m13.667.219c.055.054.055.109.055.109l1.203 2.296c.492.875.93 1.75 1.421 2.679.11.219.273.492.383.71l-1.148 2.351-1.148-2.241-.274-.601c-.656-1.312-1.312-2.57-1.968-3.882a3.5 3.5 0 0 0-.437-.765c-.164-.274-.383-.492-.71-.602h2.623zm5.686 9.567h-.437v.437h.601c.055 0 .055 0 .11-.054l.054-.055v-.219s0-.054-.055-.054c0 0-.054-.055-.109-.055zm-20.392 0h-.437v.437h.601c.055 0 .055 0 .11-.054l.054-.055v-.219l-.054-.054s-.055-.055-.11-.055zm5.795.164-.219.547h.438zm9.185 0-.219.547h.437zm-17.057 0-.219.547h.437zm20.5-.164c-.054 0-.108 0-.163.055-.055 0-.11.054-.164.109s-.11.11-.11.164c-.054.055-.054.164-.054.219 0 .109 0 .164.055.218.054.055.054.11.109.164s.11.055.164.11c.11.054.218.054.383 0 .054 0 .109-.055.164-.11.054-.054.109-.11.109-.164.055-.054.055-.164.055-.218 0-.11 0-.164-.055-.22-.055-.054-.055-.108-.11-.163-.054-.055-.109-.055-.163-.11-.11-.054-.165-.054-.22-.054m-9.566 0c-.055 0-.11 0-.164.055-.055 0-.11.054-.164.109s-.11.11-.11.164c-.054.055-.054.164-.054.219 0 .109 0 .164.054.218.055.055.055.11.11.164.054.055.109.055.164.11a.47.47 0 0 0 .382 0c.055 0 .11-.055.164-.11.055-.054.11-.11.11-.164.054-.054.054-.164.054-.218 0-.11 0-.164-.054-.22-.055-.054-.055-.108-.11-.163-.054-.055-.109-.055-.164-.11-.109-.054-.164-.054-.218-.054m6.396-.274v.055h-.055v.11l.547 1.312s0 .054.055.054h.054v.055h-.437v-.164l-.11-.219h-.6l-.11.219v.11h.055v.054h-.383v-.055s.055 0 .055-.054v-.11l.437-1.203.055-.054v-.164h.437zm-11.754 0v.055l.055.055.765.93v-.985s0-.055-.055-.055h-.054v-.054h.437v.054h-.055v1.531h-.437v-.054h.055v-.055l-.82-.984v.984s0 .055.054.055h.055v.054h-.437v-.054h.054v-1.531h.383zm7.818-.109v.438h-.055v-.055h-.929v.383h.546v-.055h.055v.437h-.055v-.11h-.601v.657h.055v.055h-.438v-.055h.055v-1.421s0-.055-.055-.055h-.054v-.055h1.202v-.055h.274zm-13.12.11v.054h-.056v.164l.547 1.258s0 .054.055.054l.054.055v.055h-.492v-.164l-.109-.22H.492l-.055.165v.11h.055v.054H.109v-.055s.055 0 .055-.054v-.11l.492-1.203.055-.054v-.164h.437zm1.858 0h.219c.054 0 .109.054.164.109.054.055.109.11.109.164s.055.164.055.219c0 .164-.055.218-.11.328-.054.054-.11.109-.218.109H3.17l.328.601s0 .055.055.055h.054v.055h-.492v-.055h.055v-.165l-.273-.491h-.383v.601h.109v.055h-.547v-.055c.055 0 .055 0 .055-.054v-1.422s0-.055-.055-.055h-.054v-.054h.984zm6.014 0v.054h-.055v.164l.547 1.258s0 .054.054.054h.055v.055h-.437v-.164l-.11-.219H8.42l-.11.219v.11h.055v.054h-.382v-.055s.054 0 .054-.054v-.11l.492-1.203.055-.054v-.164h.438zm14.378 0h.218c.055 0 .11.054.164.109s.11.11.11.164.054.164.054.219c0 .164-.054.218-.109.328-.055.054-.11.109-.164.109h-.055l.328.601s0 .055.055.055v.055h-.492v-.055h.055v-.055l-.274-.546h-.328v.601h.11v.055h-.438v-.055c.055 0 .055 0 .055-.055v-1.421s0-.055-.055-.055h-.054v-.055zm-7.38 0v.054h-.055v.165l.054.109.328.82.328-.93v-.164s0-.055-.054-.055h-.055v-.054h.437v.054c-.054 0-.054 0-.054.055v.055l-.492 1.312v.109h-.383v-.109l-.055-.164-.437-1.203s0-.055-.055-.055h-.109v-.054h.601zm-4.21-.055c.109 0 .164 0 .273.054.11.055.164.11.273.165.055.054.164.164.219.273s.055.219.055.383 0 .273-.055.382c-.055.11-.11.219-.219.274-.054.054-.164.109-.273.164-.11.054-.164.054-.273.054s-.164 0-.274-.054c-.109-.055-.164-.055-.273-.164-.055-.055-.164-.164-.219-.274s-.054-.218-.054-.382 0-.274.054-.383c.055-.11.11-.219.219-.273.055-.055.164-.11.273-.165.055 0 .164-.054.274-.054m9.567 0c.11 0 .164 0 .273.054.11.055.164.11.273.165.055.054.165.164.165.273.054.11.054.219.054.383s0 .273-.054.382c-.055.11-.11.219-.165.274a1.2 1.2 0 0 1-.273.164c-.11.054-.164.054-.273.054s-.164 0-.274-.054c-.109-.055-.163-.055-.273-.164-.055-.055-.164-.164-.164-.274-.055-.11-.055-.218-.055-.382s0-.274.055-.383c.055-.11.11-.219.164-.273s.164-.11.273-.165c.11 0 .165-.054.274-.054m-15.854-.055v.438h-.055v-.055h-.984v.383h.601v-.11h.055v.492h-.055v-.11h-.656v.438h.93v-.109h.054v.437h-.054v-.054H3.99v-.055h.055v-1.531h1.312v-.055h.164zm13.94.11v.054c-.054 0-.054 0-.054.055v1.203h.874v-.11h.055v.438h-.055v-.055h-1.257v-.055c.055 0 .055 0 .055-.054v-1.422s0-.055-.055-.055h-.055v-.054h.492z" clip-rule="evenodd"/></svg>