<svg xmlns="http://www.w3.org/2000/svg" width="24" height="24" fill="none"><g clip-path="url(#a)"><path fill="#fff" d="m19.205 5.372-4.847-2.785a4.41 4.41 0 0 0-4.408.005L5.206 5.334A4.41 4.41 0 0 0 3 9.156v5.592a4.41 4.41 0 0 0 2.16 3.795l4.78 2.837a4.42 4.42 0 0 0 4.498.006l4.813-2.84a4.42 4.42 0 0 0 2.17-3.802V9.2a4.42 4.42 0 0 0-2.215-3.828m-9.16-1.377 1.025-.572a2.41 2.41 0 0 1 2.354.005l.976.55a.6.6 0 0 1-.002 1.05l-1.713.955a1 1 0 0 1-.98-.002l-1.663-.937a.602.602 0 0 1 .002-1.05M7.308 17.632a.442.442 0 0 1-.657.381l-1.246-.712a2.4 2.4 0 0 1-1.212-2.09V9.78a1.003 1.003 0 0 1 1.5-.87l1.21.691a.8.8 0 0 1 .405.696zm.066-9.153-1.35-.762a.802.802 0 0 1 .002-1.4l1.402-.78a1 1 0 0 1 .98.001l1.662.937a.602.602 0 0 1-.002 1.05l-1.713.955a1 1 0 0 1-.98 0zm1.123 2.725a.401.401 0 0 1 .602-.349l1.917 1.095a.4.4 0 0 1 .005.694L9.106 13.78a.4.4 0 0 1-.606-.345zm2.982-.426-1.662-.937a.602.602 0 0 1 .002-1.05l1.713-.955a1 1 0 0 1 .981.002l1.662.937a.602.602 0 0 1-.002 1.05l-1.713.955a1 1 0 0 1-.981-.002m4.441 7.968a.6.6 0 0 1-.3.521l-1.308.762a1.003 1.003 0 0 1-1.507-.866v-6.507a.6.6 0 0 1 .299-.521l1.912-1.113a.603.603 0 0 1 .904.521zm4.305-7.467a.6.6 0 0 1-.3.521l-1.61.937a.802.802 0 0 1-1.205-.693v-1.885a.6.6 0 0 1 .299-.522l1.309-.762a1.003 1.003 0 0 1 1.507.867z"/></g><defs><clipPath id="a"><path fill="#fff" d="M3 2h18.421v20H3z"/></clipPath></defs></svg>