<svg xmlns="http://www.w3.org/2000/svg" width="24" height="24" fill="none"><path fill="#fff" d="M22 12.997h-.65c-.345 0-.69-.012-1.036.004-.195.008-.256-.069-.272-.247-.02-.264-.065-.524-.093-.783-.012-.138-.057-.203-.211-.199q-1.047.012-2.092 0c-.138 0-.207.053-.26.17a17 17 0 0 1-.443.91c-.036.064-.134.137-.207.137-.548.012-1.097.012-1.645.012-.016 0-.037-.012-.07-.024.257-.495.513-.982.769-1.473.491-.936.99-1.873 1.482-2.815q.67-1.27 1.328-2.543c.053-.101.114-.15.236-.146q.914.012 1.828 0c.146 0 .21.037.235.19.309 1.96.63 3.923.943 5.882.06.296.105.593.158.925M19.734 10.3a723 723 0 0 1-.321-2.495h-.061c-.386.824-.776 1.647-1.174 2.495zm-9.164 2.693.248-1.444c.305-1.716.613-3.427.914-5.143.069-.398.065-.398.463-.398h4.85c-.086.495-.163.966-.256 1.436-.008.04-.126.081-.191.081q-1.4.005-2.803.004c-.325 0-.329 0-.386.317-.056.316-.105.633-.162.981h2.66c-.089.52-.174 1.01-.26 1.521h-.304c-.723 0-1.446.004-2.173-.004-.163-.004-.22.053-.244.211-.122.755-.256 1.505-.39 2.256-.016.093-.012.19-.154.19-.585-.008-1.178-.008-1.812-.008M4.68 8.831h2.665c-.065.378-.118.735-.187 1.092-.08.421-.085.421-.528.421-.678 0-1.352.004-2.03-.004-.147 0-.212.033-.236.19-.13.808-.276 1.611-.418 2.439H2l1.239-6.953h5.24c-.033.191-.061.374-.094.556-.045.252-.097.503-.126.759-.016.158-.085.194-.235.194-.955-.008-1.91.004-2.864-.008-.211-.004-.28.065-.305.264-.04.34-.11.677-.174 1.05m6.425-2.811c-.073.43-.142.848-.215 1.262-.325 1.833-.654 3.67-.979 5.504-.028.158-.09.215-.252.211-.495-.012-.987-.004-1.482-.008-.065 0-.134-.008-.24-.012.415-2.328.825-4.64 1.235-6.96.646.003 1.28.003 1.933.003m-5.47 11.15c.113-.183.21-.346.315-.5.018-.027.075-.034.114-.037.073-.005.145-.002.246-.002-.137-.215-.261-.406-.396-.62-.06.087-.109.16-.155.232q-.434.695-.875 1.385c-.028.044-.103.078-.158.078q-1.203.006-2.406.005H2c.228-.362.448-.706.683-1.078h-.507c.124-.191.228-.351.334-.511.013-.019.052-.026.08-.026q.982-.005 1.967 0c.007 0 .015.005.049.02-.065.106-.143.204-.192.313-.077.173-.202.215-.38.202-.202-.016-.406-.008-.608-.003-.044 0-.104.026-.127.06-.106.15-.2.31-.308.477.044.006.075.016.106.016.445 0 .888.002 1.333-.005.051 0 .119-.047.147-.09q.598-.932 1.19-1.871c.042-.065.086-.127.145-.215l1.724 2.71c-.22 0-.414.003-.61-.002-.03 0-.063-.036-.081-.064a9 9 0 0 1-.238-.383c-.039-.07-.09-.09-.168-.09-.285.002-.58 0-.903 0"/><path fill="#fff" d="M5.431 15.034q-.146.236-.3.473c-.016.023-.06.036-.09.036l-2.12.002c-.008 0-.013-.01-.03-.023.097-.155.196-.315.302-.47.018-.026.067-.041.1-.041.702-.003 1.403 0 2.107 0q.006.002.031.023m12.293 2.72c-.333.107-.524.036-.607-.273-.036-.13-.113-.255-.149-.386-.083-.297-.255-.428-.612-.333v.986c-.452.083-.476.066-.476-.326 0-.671.006-1.349-.006-2.02-.006-.22.066-.302.286-.29.309.017.612 0 .921.011.34.018.536.208.542.547.012.35.089.718-.262.986-.042.035-.018.202.018.29.107.268.226.523.345.808m-1.38-1.782c-.042.214 0 .38.345.363.446-.03.488-.036.494-.357.006-.421-.018-.439-.452-.445-.387-.006-.387-.006-.387.44m-2.843.487c0-.268-.018-.535.006-.802.024-.339.19-.5.53-.529.225-.018.451-.018.683-.012.321.012.536.184.547.505q.036.828 0 1.657c-.017.32-.25.505-.576.517h-.03c-.987-.03-1.201.06-1.16-1.135zm1.32.03c0-.209-.011-.417 0-.624.018-.297-.16-.345-.398-.333-.232.006-.476-.03-.47.327.006.368 0 .73 0 1.098 0 .38.048.422.434.422.399 0 .428-.03.434-.416.006-.16 0-.32 0-.475m-4.228-.612c-.208.048-.375.083-.446-.19-.036-.148-.571-.273-.714-.13-.113.112-.107.344-.13.522-.007.03.13.107.201.113.15.018.298.006.447.012.1.006.202 0 .291.03.31.1.434.475.363 1.063-.036.285-.22.457-.542.48-.19.013-.374.007-.564.007-.524 0-.732-.226-.667-.772.19-.042.37-.095.446.19.078.273.328.166.506.166.113 0 .31-.053.321-.119.042-.172.03-.368-.012-.546-.012-.048-.208-.071-.32-.077-.286-.018-.584.053-.81-.196-.261-.291-.19-.642-.119-.957.066-.273.321-.38.613-.374.16.006.315 0 .476.006.517.03.684.22.66.772m11.353 0c-.202.048-.374.066-.452-.202-.041-.142-.606-.243-.72-.107-.1.125-.106.333-.112.505 0 .042.143.12.232.13.154.025.315.007.476.013a1 1 0 0 1 .261.041c.303.107.416.452.351 1.04a.53.53 0 0 1-.511.48 6 6 0 0 1-.774.007.53.53 0 0 1-.511-.576c.006-.077.083-.208.13-.208.102 0 .239.041.286.113.149.225.625.404.791.22.107-.12.101-.357.095-.541 0-.054-.166-.113-.261-.155-.042-.017-.095-.005-.149 0-.934.042-.951-.38-.88-1.069.03-.279.232-.427.511-.445q.294-.016.595-.006c.5.006.702.238.642.76M11.2 16.46c0-.369.006-.73-.006-1.1-.006-.177.059-.249.237-.249.316.006.637-.006.952.012.405.018.583.214.6.618v.03c.03.908-.088 1.039-.992 1.027-.28-.006-.375.083-.333.35.017.125 0 .256.005.387.012.16-.03.26-.22.26-.208 0-.25-.088-.243-.272.006-.35 0-.707 0-1.063m.814-.066c.47 0 .506-.03.506-.415 0-.422-.024-.44-.494-.44-.363 0-.339 0-.374.517-.018.338.154.374.362.338m5.948-.861v-.38h1.831c.06.386.054.41-.315.38-.291-.024-.38.071-.375.356.018.618.006 1.242.006 1.853-.404.113-.458.078-.458-.297 0-.534-.011-1.069.006-1.597.006-.244-.065-.35-.315-.315-.119.012-.238 0-.38 0"/></svg>