<svg xmlns="http://www.w3.org/2000/svg" width="24" height="24" fill="none"><path fill="#fff" fill-rule="evenodd" d="M8.514 2.056c.612.222 1.224.39 1.837.612l.334.111c.167.056.222.112.222.334V5.23c0 .223-.055.334-.278.334H7.233c-.167 0-.223-.056-.278-.223-.279-1.113-1.058-1.781-2.116-2.17h-.055c-.056 0-.112-.057-.223-.112l-.056-.112 1.782-.39c.668-.166 1.336-.333 2.004-.445.056-.111.167-.111.223-.055M15.417 2c1.225.278 2.45.557 3.674.89l.056.056-.056.056c-.056.056-.111.056-.167.056-1.058.39-1.837 1.113-2.171 2.227 0 .055-.167.167-.278.167h-1.893c-.613-.056-1.058.167-1.448.612-.111.111-.222.167-.334.278V3.058c0-.167.056-.279.223-.334.668-.223 1.28-.39 1.893-.613L15.194 2zm5.957 4.064h.111l.056.056-.613.556c-.222.167-.39.39-.612.557l-.223.167-.5.501-.112.112c-.112.11-.167.11-.279 0-.39-.502-.946-.557-1.558-.557-1.615.055-3.174 0-4.788 0h-.334l.223-.223c.334-.334.612-.724.946-1.058a.85.85 0 0 1 .557-.222c2.394.111 4.732.111 7.126.111m-9.687.056c.056 0 .167 0 .223.055-.056.056-.056.112-.112.167l-1.559 1.56-.222.222q-.168.25-.334 0c-.279-.446-.724-.557-1.28-.557-1.727.056-3.452 0-5.178 0-.334 0-.446-.111-.334-.39.055-.222.222-.5.39-.668.39-.334.89-.445 1.447-.445H8.18c1.113.056 2.338.056 3.507.056m-.835 1.948v3.675l-.947-1.058c-.111-.112-.222-.279-.334-.39l-.055-.111c-.501-.613-1.058-1.225-1.56-1.782-.055-.055-.055-.111-.11-.167.055 0 .11-.055.222-.055h.279c.445 0 .723.055 1.002.39.334.389.668.333 1.002 0 .167-.112.278-.28.5-.502m5.678.112c.167 0 .167.222.167.334v5.4h-.055c-.056-.056-.167-.056-.223-.167-.89-.835-1.114-2.06-.947-3.285.112-.668.39-1.392.557-2.06.112-.278.279-.222.501-.222M7.01 13.69v-.445l.39.39c.167.166.278.333.39.445 0 0-.056.055-.056.111h-.056c-.668.056-.668 0-.668-.501m-.278-5.51a.6.6 0 0 1 .39.167c1.336 1.558 2.672 3.062 4.008 4.62.278.279.501.668.668 1.002.501 1.058-.167 2.283-1.336 2.339H2.278c-.111 0-.167 0-.278-.056.056-.056.111-.167.167-.223l1.503-1.503.279-.278c.11-.112.167-.167.334 0 .445.39.946.612 1.558.612h2.617c.167 0 .278-.055.445-.055a1.7 1.7 0 0 0-.222-.446c-1.17-1.336-2.283-2.617-3.452-3.953L4.171 9.182c-.278-.334-.557-.668-.89-1.058h1.391c.724 0 1.392 0 2.06.056m6.013 0h2.45c.222 0 .277.055.166.278-.334.89-.556 1.781-.556 2.784.055 2.226 1.447 3.896 3.618 4.286.557.111 1.058.056 1.67.111-.556.613-1.28.891-2.06 1.003-2.839.39-5.4-1.28-6.124-4.064-.222-.947-.11-1.893.056-2.784.056-.445.223-.89.334-1.336.112-.223.223-.278.446-.278m-1.893 8.851v4.788c0 .167-.056.223-.223.111a11.9 11.9 0 0 1-3.452-3.006c-.055-.111-.11-.223-.11-.334v-1.447c0-.223.055-.279.277-.279 1.114 0 2.283 0 3.396-.055.056.055.112.111.112.222m2.004-1.781c.557.612 1.225 1.169 1.949 1.447.39.167.779.279 1.224.334l.39.112c.167.055.223.111.223.278v1.17c0 .11-.056.277-.112.333-.946 1.225-2.06 2.171-3.396 2.95l-.055.056c-.112.056-.223.167-.223-.11z" clip-rule="evenodd"/></svg>