<svg xmlns="http://www.w3.org/2000/svg" width="24" height="24" fill="none"><path fill="#fff" fill-rule="evenodd" d="M9.757 8.279v.052l-.212.423c-.105.158-.105.37-.052.58l.316 1.32.476 2.006s0 .053.052.053l1.69-4.329.21.528 1.479 3.8c.052 0 .052-.052.052-.052l.74-3.009c.052-.106.052-.211.052-.317.053-.158 0-.316-.053-.422-.053-.158-.158-.317-.21-.422v-.053h2.955c0 .053-.053.053-.053.053l-.475.475a1.15 1.15 0 0 0-.264.422l-.475 2.217-.633 2.903c-.053.317-.159.634-.211.95q-.08.396.158.634l.159.158.263.264.053.053h-2.956l.317-.686-1.109-3.009-1.108 3.009.317.686H8.279c0-.053 0-.053.052-.053l.37-.37a.87.87 0 0 0 .264-.633c0-.105-.053-.21-.053-.316l-.317-1.426-.791-3.59-.212-.844a.85.85 0 0 0-.21-.37l-.529-.527-.052-.053h2.956zm2.692-3.748H11.34c-.264 0-.528.053-.739.105a6.4 6.4 0 0 0-1.689.581c-.422.211-.845.422-1.214.739-.053.053-.106.053-.158.053H6.167V7.38c0 .053 0 .159-.053.211-.37.475-.633 1.003-.897 1.584-.211.475-.317.95-.422 1.425a6.5 6.5 0 0 0-.106 1.003v1.109c.053.264.053.58.106.844.105.58.316 1.109.528 1.636.21.423.475.845.739 1.215a.16.16 0 0 1 .052.105v1.425h1.373c.053 0 .158 0 .21.053.423.317.846.528 1.32.74a7.5 7.5 0 0 0 2.798.685c.58 0 1.162 0 1.742-.158a8.6 8.6 0 0 0 1.953-.686c.317-.159.634-.37.95-.58.053-.054.106-.054.212-.054h1.372V16.62c0-.106.053-.211.106-.317.37-.475.633-1.056.897-1.636.158-.423.264-.845.37-1.267.052-.37.105-.686.105-1.056v-1.108c0-.264-.053-.528-.106-.792a6.4 6.4 0 0 0-.58-1.69 9 9 0 0 0-.74-1.213c-.052-.053-.052-.106-.052-.159V5.956h-1.426c-.052 0-.158 0-.21-.053a6.7 6.7 0 0 0-1.32-.792c-.528-.21-1.056-.422-1.584-.527-.37.052-.686 0-1.055-.053m-.211-1.478c1.266 0 2.428.264 3.536.792.37.158.74.37 1.109.58a.5.5 0 0 0 .264.053h2.217c.158 0 .158 0 .158.158v2.217c0 .106.053.212.106.317.686 1.109 1.16 2.323 1.32 3.59 0 .158 0 .316.052.475v1.794c0 .317-.106.581-.158.898a7.9 7.9 0 0 1-.792 2.111c-.106.264-.264.475-.422.74-.053.105-.106.21-.106.316v2.322c0 .053 0 .106-.106.106h-2.322c-.106 0-.211.053-.317.106-1.108.686-2.323 1.16-3.59 1.32-.158 0-.316 0-.474.052H11.34c-.422 0-.897-.053-1.32-.158a7.9 7.9 0 0 1-2.11-.792c-.265-.106-.476-.264-.74-.422-.105-.053-.211-.106-.317-.106H4.531c-.053 0-.053 0-.053-.053v-2.322c0-.106-.053-.211-.106-.37a7.8 7.8 0 0 1-1.108-2.64 8 8 0 0 1-.211-1.108c0-.21 0-.422-.053-.633v-.686c0-1.003.158-1.953.528-2.85a6.8 6.8 0 0 1 .897-1.743c.053-.105.053-.158.053-.264v-2.27c0-.105 0-.105.158-.105h2.217c.106 0 .212-.053.317-.106a9.6 9.6 0 0 1 3.537-1.32C10.97 3 11.235 3 11.498 3c.317.053.528.053.74.053" clip-rule="evenodd"/></svg>