<svg xmlns="http://www.w3.org/2000/svg" width="24" height="24" version="1.2"><path fill="currentcolor" d="M6.3 6.4c1.8-1.1 4-1.6 6.2-1.6h10.7c-1.3 1.9-3.5 3-5.8 3.1h-4c-.9 0-1.7 0-2.6.3-1.4.4-2.7 1.2-3.7 2.3-.6.7-1.2 1.5-1.5 2.5h2.5c-.7 1.2-1.3 2.4-1.9 3.6H10c1.4-.1 2.7-.8 3.7-1.8q.9-.7 1.5-1.8h-6c.7-1.2 1.9-2.3 3.2-2.7.5-.1 1.1-.2 1.6-.2h6.4c-.5.9-.9 1.8-1.4 2.7-.4.8-.8 1.5-1.2 2.3-.3.7-.8 1.4-1.4 1.9q-1.6 1.5-3.9 2.1c-.5.1-1 .2-1.6.2H3.3c-.2 0-.4-.1-.6-.1-.5-.2-.8-.5-1-1-.2-.6-.2-1.2 0-1.7.1-.3.2-.7.4-1 .4-.8.9-1.6 1.4-2.4H.6c.1-.2.2-.4.3-.7 1.2-2.5 3.1-4.6 5.4-6"/></svg>