<svg xmlns="http://www.w3.org/2000/svg" width="24" height="24" fill="none"><path fill="#fff" d="M21.84 8.36c.15 0 .27-.12.27-.27v-.74c0-.15-.12-.27-.27-.27h-.64V5.42L20.78 5H3.39l-.42.42v1.67h-.7c-.15 0-.27.12-.27.27v.74c0 .15.12.27.27.27h.7v4.84h-.59c-.15 0-.27.12-.27.27v.74c0 .15.12.27.27.27h.59v1.62l.42.42h17.39l.42-.42v-1.62h.64c.15 0 .27-.12.27-.27v-.74c0-.15-.12-.27-.27-.27h-.64V8.36zm-2.28 6.49H4.63V6.6h14.94v8.25z"/><path fill="#fff" d="M5.56 11.299v2.66c0 .12.1.22.22.22h.7c.12 0 .22-.1.22-.22v-2.59h1.44c.12 0 .22-.1.22-.22v-3.8c0-.12-.1-.22-.22-.22H5.77c-.12 0-.22.1-.22.22v2.96c-.08.03-.15.1-.15.19v.61c0 .09.07.16.15.19zm1.16-3.12c0-.07.06-.13.13-.13h.32c.07 0 .13.06.13.13v2.01c0 .07-.06.13-.13.13h-.32c-.07 0-.13-.06-.13-.13zm2.67 6.011h2.55c.12 0 .22-.1.22-.22V7.33c0-.12-.1-.22-.22-.22h-.7c-.12 0-.22.1-.22.22v5.8h-.67v-5.8c0-.12-.1-.22-.22-.22h-.7c-.12 0-.22.1-.22.22v5.97s-.02.03-.02.05v.61c0 .12.1.22.22.22zm7.1.001h2.43c.12 0 .22-.1.22-.22v-3.85c0-.13-.1-.23-.22-.23H18c-.12 0-.22.1-.22.22v.61c0 .12.1.22.22.22v2.19h-.57v-4.96h.53v.46c0 .12.1.22.22.22h.7c.12 0 .22-.1.22-.22v-.58s.04-.06.04-.1v-.61c0-.12-.1-.22-.22-.22h-2.43c-.12 0-.22.1-.22.22v6.63c0 .12.1.22.22.22m-3.68-3.281v2.34s-.03.05-.03.08v.61c0 .12.1.22.22.22h1.96s.04-.02.07-.03c.31-.01.56-.26.56-.57v-2.71c0-.28-.2-.49-.46-.55h.21c.12 0 .22-.1.22-.22V7.31c0-.12-.1-.22-.22-.22h-2.33c-.12 0-.22.1-.22.22v.61s.02.05.03.08v1.91c-.09.03-.16.1-.16.2v.61c0 .1.07.17.16.2zm2.06-.62h.01zm-.91-2.16h.44v1.74h-.44zm0 2.8h.47v2.17h-.47zm-7.41 7.66-.73-1.09h-.95v2.29h.85v-1.04l.83 1.02.82-.99.03 1.01h.84V17.5h-.96zm3.97-1.102H8.94c-.23 0-.41.18-.41.41v1.45c0 .23.18.41.41.41h1.58c.23 0 .41-.18.41-.41v-1.45c0-.23-.18-.41-.41-.41m-.49 1.92h-.59v-1.55h.59zm3.26-1.896h-1.93v.89c-.4.17-.01.38-.01.38v1h1.72c.55.06.55-.33.55-.33v-.57c0-.31-.33-.33-.33-.33.34-.02.33-.33.33-.33v-.37c0-.32-.33-.33-.33-.33zm-1 .49c0-.08.07-.15.15-.15h.15c.08 0 .15.07.15.15v.3c0 .08-.07.15-.15.15h-.15c-.08 0-.15-.07-.15-.15zm.44 1.34c0 .08-.07.15-.15.15h-.15c-.08 0-.15-.07-.15-.15v-.45c0-.08.07-.15.15-.15h.15c.08 0 .15.07.15.15zm2.31-1.842h-1.01v2.29h1.01zm1.4 0h-1.01v2.29h1.69v-.38h-.68zm1.97-.002h-.9v.87c-.13 0-.24.11-.24.24s.11.24.24.24v.94h2.19v-.39h-1.18v-.6h1.18v-.39h-1.18v-.53h1.18v-.39h-1.29z"/></svg>