<svg xmlns="http://www.w3.org/2000/svg" width="24" height="24" fill="none"><path fill="#fff" d="M20.736 8.209q-.001 3.337.004 6.675a.38.38 0 0 1-.165.342c-.59.458-1.17.928-1.752 1.394-.146.116-.154.12-.299.008q-.876-.683-1.752-1.36c-.264-.201-.523-.403-.79-.598a.37.37 0 0 1-.173-.333c.012-.944.012-1.888.012-2.831v-9.51c0-.047.004-.09 0-.136-.004-.066.027-.109.082-.14.244-.136.472-.295.708-.447.628-.4 1.265-.788 1.89-1.192.133-.085.22-.074.345.008.57.377 1.148.75 1.73 1.11.121.078.16.156.16.296 0 2.236.004 4.473 0 6.714M3.208 8.197c0-2.225.004-4.45-.004-6.679 0-.163.051-.256.185-.342.554-.35 1.104-.71 1.654-1.064.004-.004.012-.004.016-.011.133-.148.255-.117.412-.012.578.396 1.187.746 1.772 1.138.252.17.519.322.786.47.087.05.094.112.094.19v11.821q-.001.329.004.66c.004.104-.035.178-.122.244-.628.478-1.257.963-1.886 1.445q-.376.29-.754.586c-.07.058-.122.066-.204 0-.315-.26-.64-.512-.959-.769-.283-.225-.562-.462-.853-.675-.122-.09-.149-.19-.149-.33q.005-2.524.004-5.049c.004-.536.004-1.08.004-1.623m12.145-6.108v.423c-.004 1.344.012 2.691-.012 4.035-.023 1.32-.003 2.637-.02 3.957 0 .12-.042.178-.149.229-.64.303-1.269.621-1.905.932-.393.19-.786.377-1.167.582-.098.055-.173.043-.267-.004-.735-.368-1.478-.733-2.216-1.098-.287-.14-.566-.292-.857-.42-.126-.058-.169-.132-.169-.268.004-1.32 0-2.64 0-3.96v-4.39c.075-.02.114.031.161.062.927.587 1.859 1.173 2.786 1.756.082.05.173.093.248.155.121.1.223.09.35.004.435-.284.875-.56 1.316-.839q.788-.502 1.583-.998c.09-.047.169-.136.318-.16m-3.362 17.414v-1.514c0-.171-.012-.163.153-.163.444.007.892-.016 1.336.015a1.3 1.3 0 0 1 .436.101c.205.093.33.249.366.47q.025.144.027.287v1.67q0 .157-.023.307c-.047.276-.177.423-.46.482a2 2 0 0 1-.35.042H12.16c-.185 0-.165.004-.165-.17a66 66 0 0 1-.004-1.527c-.004 0 0 0 0 0m1.026 1.1c.204.003.251-.036.27-.253 0-.02.005-.039.005-.058 0-.536.004-1.072 0-1.608 0-.218-.028-.24-.271-.26q-.005 1.089-.004 2.178m3.772-1.39v1.145c0 .494-.275.808-.77.894a1.73 1.73 0 0 1-.943-.082c-.334-.132-.53-.365-.535-.734q-.007-.815-.008-1.63c0-.284.004-.572 0-.855 0-.09.016-.128.118-.124q.384.01.766 0c.095-.004.122.023.122.12-.004.59 0 1.177 0 1.767v.718c0 .059 0 .117.02.171.02.05.047.074.098.074.06 0 .098-.016.118-.078.027-.081.02-.167.02-.248v-2.33c0-.221-.024-.19.2-.194h.648c.154 0 .154-.02.154.143q-.01.622-.008 1.243m-9.568 1.992h-.86c-.083 0-.099-.05-.107-.109-.015-.14-.035-.283-.043-.423-.004-.066-.031-.085-.094-.09-.381-.03-.377-.034-.428.335-.012.093.015.217-.06.272-.062.042-.176.019-.267.019H4.71c.012-.272.067-.524.106-.777l.264-1.763c.039-.248.082-.497.11-.745.011-.097.055-.117.137-.117.4 0 .798.004 1.198-.004.103 0 .142.04.158.129.05.31.106.625.157.935q.164 1.002.334 2.004c.012.105.027.206.047.334m-1.234-2.35-.047-.007c-.043.373-.09.75-.134 1.103.04.043.067.043.09.043.22.007.22.007.197-.202-.031-.311-.07-.626-.106-.936m-2.644.664v.815c0 .07.012.14.02.214.007.093.062.132.157.132.098 0 .141-.055.145-.144.008-.194.016-.388.012-.582-.004-.09.023-.113.11-.113q.402.006.805 0c.06 0 .099.008.099.082-.008.217.007.439-.036.656a.7.7 0 0 1-.287.446 1.2 1.2 0 0 1-.534.226 1.84 1.84 0 0 1-.927-.074c-.295-.105-.48-.307-.527-.617a3 3 0 0 1-.04-.404c0-.455.017-.905 0-1.36-.023-.745.48-.982.952-1.032.243-.028.495-.02.738.054.425.132.63.38.657.815.011.195.003.389.007.583 0 .066-.02.09-.09.09q-.413-.007-.825 0c-.083 0-.098-.036-.098-.106a9 9 0 0 0 0-.446c0-.097-.008-.194-.012-.291-.004-.078-.051-.117-.126-.117-.075-.004-.145.008-.165.101q-.029.125-.027.249c-.008.28-.008.551-.008.823m16.004-1.693h.833c.07 0 .082.042.098.097.063.202.134.404.196.605.012.032.016.063.063.082.071-.151.079-.318.126-.474q.03-.1.047-.206c.012-.07.035-.104.114-.1.275.003.546 0 .84 0-.09.283-.176.543-.262.803q-.209.637-.42 1.266a.7.7 0 0 0-.036.23c0 .33-.004.66.004.99 0 .093-.028.124-.122.12-.228-.004-.456 0-.688-.004-.133 0-.133-.004-.133-.143v-.99a.7.7 0 0 0-.036-.226q-.307-.957-.609-1.918c-.011-.043-.035-.074-.015-.132m-1.784 2.023V18.7c0-.198.027-.178-.193-.182-.098 0-.196-.004-.294 0-.079.004-.103-.035-.099-.105a10 10 0 0 0 0-.486c-.004-.085.028-.112.11-.108.295.004.59 0 .884 0h1.061c.126 0 .15-.012.146.136q-.006.232 0 .466c0 .073-.028.104-.102.1a5 5 0 0 0-.354 0c-.13 0-.13 0-.13.125v2.404c0 .155 0 .159-.157.159-.247 0-.499-.004-.746.004-.099.004-.122-.031-.122-.12q.001-.63-.004-1.247c.004 0 0 0 0 0m-10.205-.337v-1.55c0-.128.004-.131.126-.131.256-.004.511 0 .766 0 .11 0 .126-.008.126.132 0 .749.004 2.555.004 2.555l.53-.004c.036 0 .063.027.063.062 0 .136 0 .462.004.544 0 .062-.02.093-.09.093h-1.43c-.063 0-.099-.02-.095-.09.004-.046 0-.089 0-.135q-.005-.744-.004-1.476m1.828-.012v-1.533c0-.156.007-.14.137-.14h.747c.121 0 .121.004.121.132v2.407c0 .14 0 .14.138.14.118 0 .236.004.354-.004.098-.008.121.035.117.125-.007.155-.003.31 0 .466.004.085-.027.112-.113.112l-1.297-.004c-.216 0-.204.035-.204-.19zm9.006 3.321c0-.148.007-.3-.004-.447-.004-.101.023-.163.121-.214q.421-.227.83-.473c.07-.043.121-.05.196-.008q.43.25.864.493c.075.043.114.09.11.183-.008.318-.004.633 0 .951 0 .09-.027.144-.106.186-.275.152-.546.303-.813.462-.102.063-.189.066-.29.004q-.397-.231-.795-.458c-.082-.046-.121-.1-.113-.198.007-.155 0-.318 0-.482m.326.011v.408l.157.186.224-.178v-.812l-.228-.178-.157.19a9 9 0 0 1 .004.384m1.446.023v-.407l-.15-.19-.232.174v.812l.228.182.158-.205c-.004 0-.004-.245-.004-.366m-.476-.396-.26.117-.239-.109v.478l.236.213.26-.198zM4.69 23.52l-.341-.629c-.012 0-.02.004-.032.004v.412c0 .109-.004.221.004.33.004.078-.027.097-.102.1-.306.016-.306.016-.306-.286v-1.263c0-.166-.008-.163.153-.163.236 0 .236-.003.35.214.09.17.18.342.286.54l.161-.292c.051-.093.165-.31.165-.31l-.023.78s-.157.311-.314.563m4.836-.741c.024-.035.044-.078.103-.074.098.004.196 0 .294 0 .09.004.134-.035.126-.128-.004-.04 0-.078 0-.117 0-.066-.035-.089-.098-.089-.098.004-.197-.004-.295.004-.09.004-.11-.031-.11-.113.008-.295-.035-.233.236-.24q.157-.006.314 0c.165.011.29.093.33.252.043.178.063.361-.059.52-.05.066-.043.101 0 .163.122.167.102.354.051.536a.304.304 0 0 1-.287.23c-.2.011-.404.03-.605-.016.02-.105.012-.21.004-.315.13-.027.26-.008.385-.011.126-.008.126-.004.13-.132v-.078q.013-.135-.122-.128c-.09.004-.18 0-.27.004-.06.003-.103-.012-.123-.07a.5.5 0 0 0-.004-.198m4.213.644c.05-.02.082-.038.114-.042.2-.004.404 0 .605-.004.055 0 .086.015.082.077v.04c.012.236.012.236-.232.236-.286 0-.573-.004-.86 0-.095 0-.126-.023-.122-.12q.006-.737 0-1.472c0-.093.027-.124.122-.12.346.011.287-.055.29.28.004.372 0 .737 0 1.125M6.6 22.394c.004-.221.146-.36.366-.369h.078c.248.004.212-.035.22.218.004.097-.02.14-.13.136-.133 0-.137.008-.137.14v.718c0 .132.004.144.138.14.11 0 .137.039.13.136a1 1 0 0 0 0 .135q.005.088-.083.082h-.02c-.385.027-.546-.151-.566-.524-.008-.21 0-.652.004-.812m1.38.478c0 .155.003.31 0 .466-.005.252-.15.392-.405.396h-.06c-.227-.004-.2.031-.2-.214 0-.128.004-.136.138-.136.09 0 .13-.027.126-.124a24 24 0 0 1 0-.757c.003-.101-.032-.148-.138-.132-.098.015-.15-.023-.13-.128.004-.031 0-.066 0-.097.004-.125.004-.125.13-.129h.04c.36-.034.526.183.498.482-.011.124 0 .249 0 .373m7.671-.016v-.699c0-.132.003-.136.121-.136.346.004.283-.054.287.284q.006.641 0 1.277c0 .144-.004.148-.153.144-.31-.004-.256.039-.26-.252.004-.202.004-.412.004-.618"/><path fill="#fff" d="M10.494 18.849c.024-.16.13-.24.299-.249.188-.007.306.059.338.222a2.2 2.2 0 0 1 .003.769c-.027.155-.172.248-.33.24-.172-.011-.279-.104-.31-.268-.004-.03-.012-.062-.012-.097a7 7 0 0 1 .012-.617m.306.097c-.03.21-.03.458 0 .61a.03.03 0 0 0 .06 0c.03-.16.03-.408 0-.61-.005-.035-.052-.035-.06 0M9.496 23.71c-.02.008-.035.02-.055.02-.358.031-.358.031-.358-.326v-1.216c0-.17-.011-.167.173-.163h.224c.036.257-.008.505.032.75-.04.07-.032.14-.004.21q-.025.203.004.407c-.051.105-.024.21-.016.319m-4.389-.839c0-.245.004-.493 0-.738 0-.078.02-.113.106-.113.283-.007.283-.011.283.272v1.301c0 .136-.004.136-.138.14-.251.008-.251.008-.251-.24zm6.519.004v-.754c0-.073.023-.097.102-.1.302-.012.302-.016.302.287v1.293c0 .124-.004.124-.13.128-.27.008-.27.008-.27-.256q-.005-.299-.004-.598m-.416-3.678c0-.163.003-.322 0-.485 0-.078.03-.105.105-.101.09.004.185.004.275 0 .071-.004.118.016.106.097-.008.066.044.163-.094.17-.079.005-.122.098-.086.16a.05.05 0 0 0 .047.027c.035.004.09-.011.102.031.012.055.008.117.008.175 0 .027-.024.047-.055.043-.11-.012-.11.058-.106.136q.006.097 0 .194c-.004.05.023.116-.028.144-.07.034-.153.023-.228.007-.05-.007-.043-.058-.043-.093q-.005-.253-.004-.505m5.273 4.536h-.294q-.073.002-.075-.066v-.02c-.024-.264-.024-.264.247-.264.138 0 .276.004.413 0q.112-.007.106.101v.04c.008.213.008.213-.2.213a1 1 0 0 0-.197-.004q0-.006 0 0m.374-1.359h-.66c-.032 0-.071-.004-.075-.043a3 3 0 0 1 0-.272c0-.027.031-.035.059-.035h.624c.052 0 .071.027.071.07.004.086.012.175-.02.28m-.416.33h.079c.243 0 .24 0 .231.24-.003.074-.02.105-.098.102a8 8 0 0 0-.428 0c-.07 0-.114-.02-.106-.098.004-.019 0-.038 0-.058 0-.19 0-.19.188-.186zm4.881-1.46c-.095 0-.186-.093-.19-.187 0-.089.095-.19.185-.19.079-.004.197.12.193.198a.2.2 0 0 1-.189.179"/></svg>